<?xml version="1.0" encoding="utf-8"?>
<!-- Generator: Adobe Illustrator 21.0.0, SVG Export Plug-In . SVG Version: 6.00 Build 0)  -->
<svg version="1.1" id="图层_1" xmlns="http://www.w3.org/2000/svg" xmlns:xlink="http://www.w3.org/1999/xlink" x="0px" y="0px"
	 viewBox="0 0 42 42" style="enable-background:new 0 0 42 42;" xml:space="preserve">
<style type="text/css">
	.st0{fill:url(#SVGID_1_);}
	.st1{fill:#FFFFFF;}
</style>
<linearGradient id="SVGID_1_" gradientUnits="userSpaceOnUse" x1="10.4982" y1="41.1896" x2="31.5018" y2="4.8104" gradientTransform="matrix(1 0 0 -1 0 44)">
	<stop  offset="0" style="stop-color:#669CFF"/>
	<stop  offset="1" style="stop-color:#3385FF"/>
</linearGradient>
<circle class="st0" cx="21" cy="21" r="21"/>
<path class="st1" d="M23.4,12.1c0-0.1,0.1-0.2,0.2-0.2c0.6,0,1.2,0,1.8,0c0.1,0,0.2,0.1,0.2,0.2c0,0.5,0,0.9,0,1.4c1.5,0,3,0,4.5,0
	c0.1,0,0.2,0.1,0.2,0.2c0,0.6,0,1.1,0,1.7c0,0.1,0,0.1-0.1,0.2c-0.1,0.1-0.2,0-0.3,0c-1.5,0-2.9,0-4.4,0c0,1.5,0,3.1,0,4.6
	c1.5,0,2.9,0,4.4,0c0.1,0,0.2,0.1,0.2,0.2c0,2.6,0,5.3,0,7.9c0,0.4-0.1,0.9-0.4,1.3c-0.3,0.4-0.8,0.7-1.3,0.8
	c-0.3,0.1-0.6,0.1-0.9,0.1h-5.8c-0.1,0-0.1,0-0.2-0.1c-0.1-0.1,0-0.2,0-0.3c0-3.2,0-6.4,0-9.6c0-0.1,0-0.2,0-0.3
	c0-0.1,0.1-0.1,0.2-0.1c0.5,0,1.1,0,1.6,0C23.4,17.5,23.4,14.8,23.4,12.1 M23.7,28.3c1.4,0,2.9,0,4.3,0c0-2,0-4,0-6
	c-1.4,0-2.9,0-4.3,0C23.7,24.3,23.7,26.3,23.7,28.3z M11.7,12.7c0.4-0.5,1-0.8,1.7-0.8c2.2,0,4.4,0,6.6,0c0.1,0,0.2,0.1,0.2,0.1
	c0,0.1,0,0.2,0,0.3v13.2c0,0.1-0.1,0.2-0.2,0.2c-0.6,0-1.2,0-1.8,0c-0.1,0-0.2-0.1-0.2-0.2c0-3.8,0-7.7,0-11.5c-1.5,0-3.1,0-4.6,0
	c0,3.8,0,7.5,0,11.3c0,0.1,0,0.2,0,0.3c0,0.1-0.1,0.2-0.2,0.1c-0.6,0-1.2,0-1.8,0c-0.1,0-0.2-0.1-0.2-0.2c0-3.8,0-7.6,0-11.5
	C11.3,13.6,11.4,13.1,11.7,12.7z"/>
<path class="st1" d="M14.4,15.7c0-0.1,0.1-0.2,0.2-0.2c0.6,0,1.2,0,1.8,0c0.1,0,0.2,0.1,0.2,0.1c0,0.1,0,0.2,0,0.3v8.3
	c0,0.4,0,0.9,0.1,1.3c0.1,0.9,0.6,1.7,1.3,2.3c0.5,0.5,1.2,0.7,1.9,0.8c0.1,0,0.1,0.1,0.1,0.2c0,0.6,0,1.1,0,1.7
	c0,0.1,0,0.2-0.1,0.2c-0.1,0.1-0.2,0-0.3,0c-1-0.1-2-0.5-2.9-1.2c-0.5-0.4-0.9-0.8-1.2-1.3c0,0,0,0-0.1,0.1c-0.6,0.9-1.5,1.6-2.5,2
	c-0.5,0.2-1.1,0.4-1.7,0.4c-0.1,0-0.2-0.1-0.2-0.2c0-0.6,0-1.2,0-1.8c0-0.1,0-0.1,0.1-0.2c0.9-0.1,1.8-0.6,2.4-1.3
	c0.6-0.7,0.9-1.6,1-2.5C14.4,21.7,14.4,18.7,14.4,15.7z"/>
</svg>
