<?xml version="1.0" encoding="utf-8"?>
<!-- Generator: Adobe Illustrator 21.0.0, SVG Export Plug-In . SVG Version: 6.00 Build 0)  -->
<svg version="1.1" id="图层_1" xmlns="http://www.w3.org/2000/svg" xmlns:xlink="http://www.w3.org/1999/xlink" x="0px" y="0px"
	 viewBox="0 0 42 42" style="enable-background:new 0 0 42 42;" xml:space="preserve">
<style type="text/css">
	.st0{fill:url(#SVGID_1_);}
	.st1{fill:#FFFFFF;}
</style>
<linearGradient id="SVGID_1_" gradientUnits="userSpaceOnUse" x1="10.4982" y1="2.8104" x2="31.5018" y2="39.1896">
	<stop  offset="0" style="stop-color:#E73254"/>
	<stop  offset="1" style="stop-color:#D72C2B"/>
</linearGradient>
<circle class="st0" cx="21" cy="21" r="21"/>
<path class="st1" d="M17.5,22c-2.2,0.3-3.7,2-3.5,3.7c0.2,1.8,2.2,3,4.4,2.7c2.2-0.3,3.7-2,3.5-3.7C21.6,22.9,19.7,21.7,17.5,22
	L17.5,22z M16.9,27c-0.8,0.1-1.4-0.3-1.5-0.9c-0.1-0.6,0.5-1.2,1.2-1.3c0.8-0.1,1.4,0.3,1.5,0.9C18.2,26.3,17.7,26.9,16.9,27
	L16.9,27z M18.8,25c-0.3,0.1-0.6-0.1-0.7-0.3c-0.1-0.3,0.1-0.5,0.5-0.6c0.3-0.1,0.6,0.1,0.7,0.3C19.4,24.7,19.2,25,18.8,25L18.8,25z
	 M28.8,19.1c0.1,0,0.2,0.1,0.3,0.1c0.3,0,0.7-0.2,0.8-0.5c0.2-0.4,0.2-0.8,0.2-1.2c0-1.8-1.4-3.2-3.2-3.2c-0.4,0-0.8,0.1-1.2,0.2
	c-0.5,0.2-0.7,0.7-0.5,1.2c0.2,0.5,0.7,0.7,1.2,0.5C26.7,16,26.8,16,27,16c0.8,0,1.4,0.6,1.4,1.4c0,0.2,0,0.4-0.1,0.5
	C28.1,18.4,28.3,18.9,28.8,19.1z M26.7,20.4c0.1-0.3,0.2-0.5,0.2-0.5c1.6-3-2.5-4-4.8-2.7c-2.3,1.3-1.2-0.9-1.2-0.9
	c0.4-3.9-3.8-2.2-3.8-2.2c-9.6,5.4-8.6,10.7-8.6,10.7c0,2.9,4.6,6.2,10.4,6.2c7.7,0,12.1-4.5,11.3-7.9C30,21.9,28.4,20.7,26.7,20.4
	L26.7,20.4z M17.8,29.6c-5,0-6.8-2.6-6.8-4.5c0-3,4-5.2,7.7-5.2c3.7,0,6.4,1.6,7,3.7C26.7,26.6,22.8,29.6,17.8,29.6z M27,10.9
	c-0.5,0-1.1,0.1-1.6,0.2c-0.5,0.1-0.8,0.6-0.6,1.1c0.1,0.5,0.6,0.8,1.1,0.6c0.4-0.1,0.8-0.1,1.2-0.1c2.6,0,4.7,2.1,4.7,4.7
	c0,0.6-0.1,1.1-0.3,1.6c-0.2,0.5,0.1,1,0.5,1.1c0.1,0,0.2,0.1,0.3,0.1c0.4,0,0.7-0.2,0.8-0.6c0.3-0.7,0.4-1.5,0.4-2.2
	C33.5,13.8,30.6,10.9,27,10.9z"/>
</svg>
