<?xml version="1.0" encoding="utf-8"?>
<!-- Generator: Adobe Illustrator 21.0.0, SVG Export Plug-In . SVG Version: 6.00 Build 0)  -->
<svg version="1.1" id="图层_1" xmlns="http://www.w3.org/2000/svg" xmlns:xlink="http://www.w3.org/1999/xlink" x="0px" y="0px"
	 viewBox="0 0 42 42" style="enable-background:new 0 0 42 42;" xml:space="preserve">
<style type="text/css">
	.st0{fill:url(#SVGID_1_);}
	.st1{fill:#FFFFFF;}
</style>
<linearGradient id="SVGID_1_" gradientUnits="userSpaceOnUse" x1="10.4982" y1="2.8104" x2="31.5018" y2="39.1896">
	<stop  offset="0" style="stop-color:#4CACE2"/>
	<stop  offset="1" style="stop-color:#4E83C4"/>
</linearGradient>
<circle class="st0" cx="21" cy="21" r="21"/>
<path class="st1" d="M30.4,24.4c-0.4-2.5-2.3-4.1-2.3-4.1c0.3-2.2-0.7-2.6-0.7-2.6c-0.2-6.9-6.3-6.8-6.5-6.8c-0.1,0-6.3-0.1-6.5,6.8
	c0,0-1,0.4-0.7,2.6c0,0-1.8,1.6-2.3,4.1c0,0-0.2,4.2,2.1,0.5c0,0,0.5,1.4,1.5,2.6c0,0-1.7,0.6-1.6,2c0,0-0.1,1.6,3.7,1.5
	c0,0,2.6-0.2,3.4-1.3H21h0h0.3c0.8,1.1,3.4,1.3,3.4,1.3c3.7,0.1,3.7-1.5,3.7-1.5c0.1-1.5-1.6-2-1.6-2c1-1.2,1.5-2.6,1.5-2.6
	C30.7,28.6,30.4,24.4,30.4,24.4z"/>
</svg>
