<?xml version="1.0" encoding="utf-8"?>
<!-- Generator: Adobe Illustrator 21.0.0, SVG Export Plug-In . SVG Version: 6.00 Build 0)  -->
<svg version="1.1" id="图层_1" xmlns="http://www.w3.org/2000/svg" xmlns:xlink="http://www.w3.org/1999/xlink" x="0px" y="0px"
	 viewBox="0 0 42 42" style="enable-background:new 0 0 42 42;" xml:space="preserve">
<style type="text/css">
	.st0{fill:url(#SVGID_1_);}
	.st1{fill:#FFFFFF;}
</style>
<linearGradient id="SVGID_1_" gradientUnits="userSpaceOnUse" x1="10.4982" y1="2.8104" x2="31.5018" y2="39.1896">
	<stop  offset="0" style="stop-color:#53B669"/>
	<stop  offset="1" style="stop-color:#28AD56"/>
</linearGradient>
<circle class="st0" cx="21" cy="21" r="21"/>
<path class="st1" d="M25.2,17.5c0.1,0,0.2,0,0.3,0c-0.7-3-3.7-5.3-7.5-5.3c-4.2,0-7.6,2.9-7.6,6.5c0,2.1,1.2,3.9,3,5.1l-0.8,2.2
	l2.5-1.4C16,25,17,25.2,18,25.2c0.2,0,0.4,0,0.6,0c-0.2-0.6-0.3-1.2-0.3-1.8C18.3,20.2,21.4,17.5,25.2,17.5z M20.6,15.5
	c0.6,0,1.1,0.5,1.1,1.1c0,0.6-0.5,1.1-1.1,1.1c-0.6,0-1.1-0.5-1.1-1.1C19.5,16,20,15.5,20.6,15.5z M15.4,17.7
	c-0.6,0-1.1-0.5-1.1-1.1c0-0.6,0.5-1.1,1.1-1.1c0.6,0,1.1,0.5,1.1,1.1C16.5,17.2,16,17.7,15.4,17.7z"/>
<path class="st1" d="M31.6,23.4c0-3-2.9-5.4-6.4-5.4s-6.4,2.4-6.4,5.4s2.9,5.4,6.4,5.4c0.7,0,1.5-0.1,2.1-0.3l2.2,1.2l-0.6-1.9
	C30.5,26.9,31.6,25.2,31.6,23.4z M23.2,22.6c-0.5,0-0.9-0.4-0.9-0.9c0-0.5,0.4-0.9,0.9-0.9c0.5,0,0.9,0.4,0.9,0.9
	C24.1,22.2,23.7,22.6,23.2,22.6z M27.4,22.6c-0.5,0-0.9-0.4-0.9-0.9c0-0.5,0.4-0.9,0.9-0.9s0.9,0.4,0.9,0.9
	C28.2,22.2,27.8,22.6,27.4,22.6z"/>
</svg>
