<?xml version="1.0" encoding="utf-8"?>
<!-- Generator: Adobe Illustrator 21.0.0, SVG Export Plug-In . SVG Version: 6.00 Build 0)  -->
<svg version="1.1" id="图层_1" xmlns="http://www.w3.org/2000/svg" xmlns:xlink="http://www.w3.org/1999/xlink" x="0px" y="0px"
	 viewBox="0 0 42 42" style="enable-background:new 0 0 42 42;" xml:space="preserve">
<style type="text/css">
	.st0{fill:url(#SVGID_1_);}
	.st1{fill:#FFFFFF;}
</style>
<linearGradient id="SVGID_1_" gradientUnits="userSpaceOnUse" x1="10.4982" y1="41.1896" x2="31.5018" y2="4.8104" gradientTransform="matrix(1 0 0 -1 0 44)">
	<stop  offset="0" style="stop-color:#1BC274"/>
	<stop  offset="1" style="stop-color:#029D55"/>
</linearGradient>
<circle class="st0" cx="21" cy="21" r="21"/>
<path class="st1" d="M11.7,11.3h18.6v2.1H11.7C11.7,13.4,11.7,11.3,11.7,11.3z M28.7,23.8v-8.2H13.3v8.2L28.7,23.8L28.7,23.8z
	 M15.5,17.7h11v4h-11C15.5,21.7,15.5,17.7,15.5,17.7z M25.4,28.6c0.7-1,1.3-2.2,1.9-3.6L25,24.2c-0.6,1.6-1.3,3.1-2,4.4h-3.9
	c-0.6-1.7-1.4-3.2-2.2-4.4L14.8,25c0.8,1.3,1.5,2.5,2.1,3.6h-5.7v2.1h19.7v-2.1C30.8,28.6,25.4,28.6,25.4,28.6z"/>
</svg>
